<?xml version="1.0" encoding="UTF-8"?>
<svg version="1.1" xmlns="http://www.w3.org/2000/svg" width="24" height="24">
<path d="M0 0 C1.485 0.99 1.485 0.99 3 2 C3 3.32 3 4.64 3 6 C8.28 6 13.56 6 19 6 C19.33 4.35 19.66 2.7 20 1 C20.99 1 21.98 1 23 1 C23 3.97 23 6.94 23 10 C15.08 10 7.16 10 -1 10 C-1 1 -1 1 0 0 Z " fill="#0000FE" transform="translate(1,14)"/>
<path d="M0 0 C1.32 0 2.64 0 4 0 C4.33 3.3 4.66 6.6 5 10 C6.65 9.67 8.3 9.34 10 9 C9.65657251 12.09084737 8.74044345 13.32444569 6.75 15.8125 C4 18 4 18 1.5 18.125 C-1.79337016 16.64298343 -3.69820467 14.76215439 -6 12 C-6 11.01 -6 10.02 -6 9 C-3.525 9.495 -3.525 9.495 -1 10 C-0.67 6.7 -0.34 3.4 0 0 Z " fill="#0000FE" transform="translate(10,0)"/>
</svg>
